<svg xmlns="http://www.w3.org/2000/svg" width="24" height="24" fill="none"><mask id="a" width="24" height="24" x="0" y="0" maskUnits="userSpaceOnUse" style="mask-type:alpha"><path fill="#D9D9D9" d="M0 0h24v24H0z" style="--darkreader-inline-fill:#d0ccc6"/></mask><g mask="url(#a)"><path fill="#CCE9FF" d="M4.222 22a2.14 2.14 0 0 1-1.57-.653A2.14 2.14 0 0 1 2 19.777V4.223c0-.61.218-1.134.653-1.57A2.14 2.14 0 0 1 4.223 2h6.666c.315 0 .579.106.792.32.213.212.319.476.319.791 0 .315-.107.579-.32.792-.212.213-.476.32-.791.32H4.222v15.555h15.556V13.11c0-.315.106-.579.32-.792.212-.213.476-.319.79-.319.316 0 .58.107.793.32.212.212.319.476.319.791v6.667a2.14 2.14 0 0 1-.653 1.57 2.14 2.14 0 0 1-1.57.652H4.223Zm4.445-6.667a1.053 1.053 0 0 1-.306-.777c0-.315.102-.574.306-.778l9.555-9.556h-2.889c-.315 0-.578-.106-.791-.32a1.075 1.075 0 0 1-.32-.79c0-.316.107-.58.32-.793.213-.213.476-.319.791-.319h5.556c.315 0 .579.106.792.32.212.212.319.476.319.791v5.556c0 .314-.107.578-.32.791-.212.213-.476.32-.791.32-.315 0-.579-.107-.792-.32a1.075 1.075 0 0 1-.32-.791v-2.89l-9.583 9.584a1.02 1.02 0 0 1-.75.306c-.296 0-.555-.111-.777-.334Z" style="--darkreader-inline-fill:#a8daff"/></g></svg>